# xmcd
# Track frame offsets:
# 150
# 19495
# 36788
# 51637
# 67603
# 85620
# 98368
# 110975
# 128405
# 144876
# 161018
# 179827
# 197069
# 216325
# 229063
# 246178
#
# Disc length: 3517 seconds
# Revision: 0
# Processed by: cddbd v1.5.1PL0 Copyright (c) Steve Scherf et al.
# Submitted via: VisiTrax 2.9.10.228 - For more info visit www.synapsa.com
#
DISCID=de0dbb10
DTITLE=Various Artist - Country Female Party Songs (21712)
DYEAR=2004
DGENRE=Country
TTITLE0=FAITH HILL - BREATHE
TTITLE1=SHANIA TWAIN - YOU'RE STILL THE ONE
TTITLE2=DIXIE CHICKS - THERE'S YOUR TROUBLE
TTITLE3=MARTINA McBRIDE - INDEPENDENCE DAY
TTITLE4=LEANN RIMES - HOW DO I LIVE
TTITLE5=TRISHA YEARWOOD - XXX's AND OOO's
TTITLE6=PATTY LOVELESS - I TRY TO THINK ABOUT ELVIS
TTITLE7=DEANA CARTER - WE DANCED ANYWAY
TTITLE8=KATHY MATTEA - CLOWN IN YOUR RODEO
TTITLE9=TANYA TUCKER - DOWN TO MY LAST TEARDROP
TTITLE10=WYNONNA JUDD - NO ONE ELSE ON EARTH
TTITLE11=REBA McENTIRE - HOW WAS I TO KNOW
TTITLE12=LORRIE MORGAN - I GUESS YOU HAD TO BE THERE
TTITLE13=FAITH HILL - WILD ONE
TTITLE14=DIXIE CHICKS - YOU WERE MINE
TTITLE15=SHANIA TWAIN - DON'T BE STUPID (YOU KNOW I LOVE YOU)
EXTD=
EXTT0=
EXTT1=
EXTT2=
EXTT3=
EXTT4=
EXTT5=
EXTT6=
EXTT7=
EXTT8=
EXTT9=
EXTT10=
EXTT11=
EXTT12=
EXTT13=
EXTT14=
EXTT15=
PLAYORDER=
